<svg id="visual" viewBox="0 0 900 600" width="900" height="600" xmlns="http://www.w3.org/2000/svg" xmlns:xlink="http://www.w3.org/1999/xlink" version="1.1"><path d="M0 321L45 321L45 321L90 321L90 342L135 342L135 357L180 357L180 285L225 285L225 329L270 329L270 293L315 293L315 267L360 267L360 340L405 340L405 367L450 367L450 352L495 352L495 381L540 381L540 314L585 314L585 354L630 354L630 325L675 325L675 320L720 320L720 373L765 373L765 367L810 367L810 351L855 351L855 282L900 282L900 304L900 0L900 0L855 0L855 0L810 0L810 0L765 0L765 0L720 0L720 0L675 0L675 0L630 0L630 0L585 0L585 0L540 0L540 0L495 0L495 0L450 0L450 0L405 0L405 0L360 0L360 0L315 0L315 0L270 0L270 0L225 0L225 0L180 0L180 0L135 0L135 0L90 0L90 0L45 0L45 0L0 0Z" fill="#001e31"></path><path d="M0 246L45 246L45 238L90 238L90 285L135 285L135 292L180 292L180 318L225 318L225 243L270 243L270 280L315 280L315 305L360 305L360 216L405 216L405 282L450 282L450 279L495 279L495 270L540 270L540 275L585 275L585 305L630 305L630 288L675 288L675 253L720 253L720 294L765 294L765 229L810 229L810 327L855 327L855 233L900 233L900 234L900 0L900 0L855 0L855 0L810 0L810 0L765 0L765 0L720 0L720 0L675 0L675 0L630 0L630 0L585 0L585 0L540 0L540 0L495 0L495 0L450 0L450 0L405 0L405 0L360 0L360 0L315 0L315 0L270 0L270 0L225 0L225 0L180 0L180 0L135 0L135 0L90 0L90 0L45 0L45 0L0 0Z" fill="#052239"></path><path d="M0 260L45 260L45 187L90 187L90 226L135 226L135 204L180 204L180 194L225 194L225 276L270 276L270 267L315 267L315 224L360 224L360 233L405 233L405 260L450 260L450 217L495 217L495 206L540 206L540 184L585 184L585 252L630 252L630 183L675 183L675 211L720 211L720 193L765 193L765 218L810 218L810 210L855 210L855 239L900 239L900 216L900 0L900 0L855 0L855 0L810 0L810 0L765 0L765 0L720 0L720 0L675 0L675 0L630 0L630 0L585 0L585 0L540 0L540 0L495 0L495 0L450 0L450 0L405 0L405 0L360 0L360 0L315 0L315 0L270 0L270 0L225 0L225 0L180 0L180 0L135 0L135 0L90 0L90 0L45 0L45 0L0 0Z" fill="#0e2641"></path><path d="M0 146L45 146L45 231L90 231L90 193L135 193L135 211L180 211L180 186L225 186L225 218L270 218L270 212L315 212L315 163L360 163L360 234L405 234L405 141L450 141L450 223L495 223L495 174L540 174L540 150L585 150L585 172L630 172L630 168L675 168L675 187L720 187L720 150L765 150L765 187L810 187L810 207L855 207L855 234L900 234L900 223L900 0L900 0L855 0L855 0L810 0L810 0L765 0L765 0L720 0L720 0L675 0L675 0L630 0L630 0L585 0L585 0L540 0L540 0L495 0L495 0L450 0L450 0L405 0L405 0L360 0L360 0L315 0L315 0L270 0L270 0L225 0L225 0L180 0L180 0L135 0L135 0L90 0L90 0L45 0L45 0L0 0Z" fill="#182a49"></path><path d="M0 160L45 160L45 176L90 176L90 99L135 99L135 103L180 103L180 174L225 174L225 155L270 155L270 155L315 155L315 151L360 151L360 95L405 95L405 181L450 181L450 169L495 169L495 185L540 185L540 136L585 136L585 93L630 93L630 108L675 108L675 174L720 174L720 166L765 166L765 187L810 187L810 162L855 162L855 140L900 140L900 115L900 0L900 0L855 0L855 0L810 0L810 0L765 0L765 0L720 0L720 0L675 0L675 0L630 0L630 0L585 0L585 0L540 0L540 0L495 0L495 0L450 0L450 0L405 0L405 0L360 0L360 0L315 0L315 0L270 0L270 0L225 0L225 0L180 0L180 0L135 0L135 0L90 0L90 0L45 0L45 0L0 0Z" fill="#232d50"></path><path d="M0 126L45 126L45 106L90 106L90 71L135 71L135 113L180 113L180 124L225 124L225 93L270 93L270 107L315 107L315 83L360 83L360 118L405 118L405 58L450 58L450 124L495 124L495 138L540 138L540 86L585 86L585 119L630 119L630 56L675 56L675 85L720 85L720 73L765 73L765 73L810 73L810 119L855 119L855 101L900 101L900 105L900 0L900 0L855 0L855 0L810 0L810 0L765 0L765 0L720 0L720 0L675 0L675 0L630 0L630 0L585 0L585 0L540 0L540 0L495 0L495 0L450 0L450 0L405 0L405 0L360 0L360 0L315 0L315 0L270 0L270 0L225 0L225 0L180 0L180 0L135 0L135 0L90 0L90 0L45 0L45 0L0 0Z" fill="#2f3057"></path><path d="M0 21L45 21L45 46L90 46L90 55L135 55L135 72L180 72L180 41L225 41L225 35L270 35L270 65L315 65L315 64L360 64L360 62L405 62L405 50L450 50L450 63L495 63L495 46L540 46L540 23L585 23L585 66L630 66L630 20L675 20L675 84L720 84L720 22L765 22L765 58L810 58L810 53L855 53L855 56L900 56L900 31L900 0L900 0L855 0L855 0L810 0L810 0L765 0L765 0L720 0L720 0L675 0L675 0L630 0L630 0L585 0L585 0L540 0L540 0L495 0L495 0L450 0L450 0L405 0L405 0L360 0L360 0L315 0L315 0L270 0L270 0L225 0L225 0L180 0L180 0L135 0L135 0L90 0L90 0L45 0L45 0L0 0Z" fill="#3b335d"></path></svg>