<svg xmlns="http://www.w3.org/2000/svg" version="1.1" xmlns:xlink="http://www.w3.org/1999/xlink" xmlns:svgjs="http://svgjs.dev/svgjs" width="1000" height="650" viewBox="0 0 1000 650"><g transform="matrix(1,0,0,1,0.1066666666666265,-0.19979508196723827)"><svg viewBox="0 0 375 244" data-background-color="#ffffff" preserveAspectRatio="xMidYMid meet" height="650" width="1000" xmlns="http://www.w3.org/2000/svg" xmlns:xlink="http://www.w3.org/1999/xlink"><g id="tight-bounds" transform="matrix(1,0,0,1,-0.03976036071776434,0.07528076171877274)"><svg viewBox="0 0 375.07952880859375 243.84971618652344" height="243.84971618652344" width="375.07952880859375"><g><svg></svg></g><g><svg viewBox="0 0 375.07952880859375 243.84971618652344" height="243.84971618652344" width="375.07952880859375"><g transform="matrix(1,0,0,1,-10.220239639282227,-3.35028076171875)"><path xmlns="http://www.w3.org/2000/svg" d="M10.22 243.85v-240.5h375.08v240.5h-23.541l0-1.931h21.611v-236.638h-371.22v236.638h25.427l0 1.931z" fill="#001e31" fill-rule="nonzero" stroke="none" stroke-width="1" stroke-linecap="butt" stroke-linejoin="miter" stroke-miterlimit="10" stroke-dasharray="" stroke-dashoffset="0" font-family="none" font-weight="none" font-size="none" text-anchor="none" style="mix-blend-mode: normal" data-fill-palette-color="tertiary"></path><g><path xmlns="http://www.w3.org/2000/svg" d="M44.118 247.2h-0.75v-6.661h0.657l0.065 1.145-0.103-0.132c0.081-0.219 0.203-0.412 0.366-0.577 0.163-0.165 0.36-0.295 0.591-0.389 0.231-0.094 0.482-0.141 0.751-0.141v0c0.382 0 0.734 0.097 1.056 0.291 0.321 0.194 0.579 0.472 0.773 0.835 0.194 0.363 0.291 0.801 0.291 1.314v0c0 0.507-0.098 0.943-0.295 1.307-0.198 0.366-0.459 0.647-0.784 0.841-0.325 0.194-0.682 0.291-1.07 0.291v0c-0.388 0-0.727-0.096-1.017-0.287-0.291-0.19-0.5-0.432-0.624-0.726v0l0.093-0.141zM45.591 244.667v0c0.463 0 0.824-0.163 1.085-0.488 0.259-0.325 0.388-0.757 0.388-1.294v0c0-0.538-0.126-0.969-0.379-1.295-0.254-0.325-0.609-0.488-1.065-0.488v0c-0.3 0-0.563 0.073-0.789 0.22-0.225 0.148-0.4 0.354-0.525 0.619-0.125 0.266-0.188 0.581-0.187 0.944v0c0 0.356 0.061 0.669 0.183 0.938 0.121 0.269 0.293 0.477 0.516 0.625 0.221 0.146 0.479 0.22 0.773 0.219zM97.325 240.445v0c0.444 0 0.837 0.097 1.179 0.291 0.34 0.194 0.607 0.473 0.801 0.839 0.194 0.366 0.291 0.803 0.291 1.31v0c0 0.507-0.097 0.943-0.291 1.307-0.194 0.366-0.461 0.647-0.801 0.841-0.341 0.194-0.734 0.291-1.179 0.291v0c-0.438 0-0.829-0.097-1.172-0.291-0.344-0.194-0.613-0.474-0.807-0.841-0.194-0.365-0.291-0.801-0.291-1.307v0c0-0.507 0.097-0.943 0.291-1.31 0.194-0.365 0.463-0.645 0.807-0.839 0.344-0.194 0.735-0.291 1.172-0.291zM97.325 241.093v0c-0.319 0-0.591 0.072-0.816 0.216-0.225 0.144-0.398 0.348-0.519 0.613-0.123 0.266-0.184 0.587-0.184 0.963v0c0 0.369 0.061 0.688 0.184 0.956 0.121 0.269 0.295 0.475 0.519 0.62 0.225 0.144 0.497 0.216 0.816 0.215v0c0.319 0 0.591-0.072 0.817-0.215 0.225-0.144 0.399-0.35 0.521-0.62 0.121-0.269 0.182-0.588 0.182-0.956v0c0-0.375-0.061-0.696-0.182-0.963-0.123-0.265-0.296-0.47-0.521-0.613-0.225-0.144-0.497-0.216-0.817-0.216zM148.975 245.324v0c-0.388 0-0.744-0.097-1.069-0.291-0.325-0.194-0.585-0.474-0.779-0.841-0.194-0.365-0.291-0.801-0.291-1.307v0c0-0.519 0.103-0.96 0.31-1.323 0.206-0.363 0.478-0.64 0.816-0.831 0.338-0.19 0.7-0.285 1.088-0.286v0c0.388 0 0.724 0.1 1.01 0.301 0.284 0.2 0.473 0.466 0.566 0.797v0l-0.094 0.066v-3.227h0.751v6.848h-0.657l-0.065-1.135 0.103-0.056c-0.044 0.275-0.148 0.508-0.314 0.697-0.166 0.191-0.37 0.337-0.609 0.438-0.241 0.1-0.497 0.15-0.766 0.15zM149.05 244.667v0c0.3 0 0.562-0.075 0.784-0.225 0.221-0.15 0.393-0.365 0.516-0.644 0.121-0.278 0.182-0.604 0.182-0.979v0c0-0.356-0.061-0.663-0.182-0.919-0.123-0.256-0.291-0.453-0.506-0.591-0.216-0.138-0.468-0.206-0.756-0.207v0c-0.475 0-0.844 0.163-1.107 0.488-0.263 0.325-0.394 0.757-0.394 1.295v0c0 0.538 0.128 0.969 0.384 1.294 0.256 0.325 0.616 0.488 1.079 0.488zM201.103 240.445v0c0.325 0 0.612 0.05 0.86 0.151 0.246 0.1 0.46 0.244 0.641 0.431 0.181 0.188 0.328 0.41 0.441 0.666v0l-0.713 0.338c-0.1-0.3-0.251-0.53-0.454-0.691-0.204-0.159-0.468-0.238-0.793-0.238v0c-0.313 0-0.582 0.07-0.807 0.21-0.225 0.141-0.397 0.345-0.516 0.61-0.119 0.266-0.178 0.587-0.178 0.963v0c0 0.369 0.059 0.688 0.178 0.956 0.119 0.269 0.291 0.473 0.516 0.614 0.225 0.141 0.494 0.212 0.807 0.212v0c0.244 0 0.455-0.038 0.634-0.113 0.178-0.075 0.325-0.184 0.441-0.328 0.115-0.144 0.195-0.319 0.238-0.525v0l0.694 0.244c-0.106 0.288-0.251 0.535-0.435 0.741-0.185 0.206-0.407 0.364-0.666 0.473-0.26 0.11-0.556 0.165-0.888 0.165v0c-0.438 0-0.829-0.097-1.172-0.291-0.344-0.194-0.613-0.474-0.807-0.841-0.194-0.365-0.291-0.801-0.291-1.307v0c0-0.507 0.097-0.943 0.291-1.31 0.194-0.365 0.463-0.645 0.807-0.839 0.344-0.194 0.735-0.291 1.172-0.291zM253.288 243.494v-1.294c0-0.35-0.094-0.621-0.282-0.813-0.188-0.19-0.453-0.285-0.797-0.285v0c-0.325 0-0.6 0.07-0.826 0.21-0.225 0.141-0.391 0.368-0.497 0.681v0l-0.61-0.375c0.125-0.35 0.356-0.634 0.695-0.85 0.338-0.215 0.757-0.323 1.257-0.323v0c0.338 0 0.644 0.058 0.919 0.173 0.275 0.116 0.493 0.291 0.653 0.525 0.159 0.235 0.238 0.537 0.238 0.907v0 2.27c0 0.225 0.119 0.338 0.357 0.338v0c0.119 0 0.235-0.016 0.347-0.047v0l-0.038 0.591c-0.125 0.063-0.288 0.094-0.488 0.094v0c-0.181 0-0.344-0.034-0.487-0.104-0.144-0.069-0.256-0.174-0.338-0.315-0.081-0.14-0.122-0.316-0.122-0.529v0-0.094l0.188 0.028c-0.075 0.244-0.203 0.442-0.385 0.595-0.181 0.154-0.385 0.266-0.61 0.338-0.225 0.073-0.447 0.109-0.666 0.109v0c-0.275 0-0.532-0.047-0.769-0.141-0.238-0.094-0.427-0.236-0.567-0.428-0.141-0.19-0.212-0.426-0.212-0.707v0c0-0.35 0.118-0.64 0.353-0.869 0.234-0.228 0.56-0.382 0.979-0.463v0l1.858-0.366v0.619l-1.511 0.31c-0.306 0.063-0.535 0.15-0.684 0.262-0.15 0.113-0.225 0.269-0.226 0.469v0c0 0.194 0.077 0.351 0.231 0.473 0.153 0.123 0.37 0.184 0.651 0.184v0c0.181 0 0.355-0.024 0.522-0.071 0.165-0.046 0.313-0.118 0.445-0.216 0.131-0.096 0.235-0.218 0.309-0.366 0.075-0.146 0.113-0.32 0.113-0.52zM303.68 245.324v0c-0.457 0-0.877-0.097-1.261-0.291-0.385-0.194-0.681-0.469-0.887-0.826v0l0.638-0.459c0.138 0.288 0.34 0.513 0.606 0.675 0.265 0.163 0.585 0.244 0.961 0.244v0c0.331 0 0.591-0.064 0.778-0.193 0.188-0.128 0.281-0.295 0.282-0.501v0c0-0.131-0.042-0.252-0.126-0.362-0.085-0.109-0.246-0.188-0.484-0.239v0l-1.126-0.234c-0.457-0.094-0.783-0.25-0.979-0.469-0.198-0.219-0.296-0.491-0.297-0.816v0c0-0.256 0.074-0.491 0.222-0.704 0.146-0.213 0.356-0.383 0.628-0.512 0.271-0.128 0.592-0.191 0.961-0.192v0c0.463 0 0.854 0.091 1.173 0.273 0.319 0.181 0.557 0.438 0.713 0.769v0l-0.629 0.413c-0.106-0.275-0.278-0.477-0.516-0.606-0.238-0.128-0.485-0.191-0.741-0.192v0c-0.225 0-0.417 0.031-0.576 0.094-0.16 0.063-0.282 0.148-0.366 0.257-0.085 0.11-0.128 0.234-0.128 0.372v0c0 0.138 0.047 0.264 0.141 0.379 0.094 0.116 0.269 0.2 0.525 0.249v0l1.173 0.244c0.438 0.088 0.744 0.231 0.919 0.432 0.175 0.2 0.263 0.444 0.263 0.731v0c0 0.294-0.078 0.552-0.234 0.773-0.156 0.223-0.375 0.393-0.657 0.512-0.281 0.119-0.607 0.178-0.976 0.179zM353.426 239.414l0.75-0.207v4.728c0 0.231 0.066 0.403 0.197 0.516 0.131 0.113 0.3 0.169 0.507 0.169v0c0.181 0 0.338-0.031 0.469-0.094 0.131-0.063 0.25-0.147 0.356-0.253v0l0.263 0.629c-0.144 0.131-0.314 0.235-0.51 0.309-0.198 0.075-0.425 0.113-0.682 0.113v0c-0.238 0-0.46-0.043-0.666-0.128-0.206-0.084-0.37-0.218-0.491-0.403-0.123-0.184-0.187-0.426-0.193-0.726v0zM352.487 240.539h3.396v0.648h-3.396z" fill="#96a2fb" fill-rule="nonzero" stroke="none" stroke-width="1" stroke-linecap="butt" stroke-linejoin="miter" stroke-miterlimit="10" stroke-dasharray="" stroke-dashoffset="0" font-family="none" font-weight="none" font-size="none" text-anchor="none" style="mix-blend-mode: normal" data-fill-palette-color="secondary"></path></g></g><g transform="matrix(1,0,0,1,29.331764404296905,71.01764211297787)"><svg viewBox="0 0 316.41599999999994 101.8144319605677" height="101.8144319605677" width="316.41599999999994"><g><svg viewBox="0 0 316.41600000000005 101.81443196056773" height="101.8144319605677" width="316.41599999999994"><g transform="matrix(1,0,0,1,0,80.41049665255392)"><svg viewBox="0 0 316.41600000000005 21.40393530801381" height="21.40393530801381" width="316.41600000000005"><g id="textblocktransform"><svg viewBox="0 0 316.41600000000005 21.40393530801381" height="21.40393530801381" width="316.41600000000005" id="textblock"><g><svg viewBox="0 0 316.41600000000005 21.40393530801381" height="21.40393530801381" width="316.41600000000005"><g transform="matrix(1,0,0,1,0,0)"><svg width="316.41600000000005" viewBox="3 -36.83000183105469 550.25 37.230003356933594" height="21.40393530801381" data-palette-color="#001e31"><path d="M15.85-12.18L11.45-12.18 11.45 0 3 0 3-36.43 15.85-36.43Q19.7-36.43 22.46-35.51 25.23-34.6 27.01-33 28.8-31.4 29.65-29.23 30.5-27.05 30.5-24.53L30.5-24.53Q30.5-21.8 29.63-19.53 28.75-17.25 26.95-15.63 25.15-14 22.39-13.09 19.63-12.18 15.85-12.18L15.85-12.18ZM11.45-30.1L11.45-18.55 15.85-18.55Q19.15-18.55 20.6-20.13 22.05-21.7 22.05-24.53L22.05-24.53Q22.05-25.78 21.68-26.8 21.3-27.83 20.54-28.56 19.78-29.3 18.61-29.7 17.45-30.1 15.85-30.1L15.85-30.1 11.45-30.1ZM70.85-18.23L70.85-18.23Q70.85-14.28 69.48-10.88 68.12-7.48 65.65-4.96 63.17-2.45 59.69-1.03 56.2 0.4 51.95 0.4L51.95 0.4Q47.7 0.4 44.2-1.03 40.7-2.45 38.21-4.96 35.72-7.48 34.36-10.88 33-14.28 33-18.23L33-18.23Q33-22.18 34.36-25.58 35.72-28.98 38.21-31.48 40.7-33.98 44.2-35.4 47.7-36.83 51.95-36.83L51.95-36.83Q56.2-36.83 59.69-35.39 63.17-33.95 65.65-31.45 68.12-28.95 69.48-25.55 70.85-22.15 70.85-18.23ZM62.2-18.23L62.2-18.23Q62.2-20.93 61.5-23.09 60.8-25.25 59.48-26.75 58.17-28.25 56.27-29.05 54.37-29.85 51.95-29.85L51.95-29.85Q49.5-29.85 47.59-29.05 45.67-28.25 44.36-26.75 43.05-25.25 42.35-23.09 41.65-20.93 41.65-18.23L41.65-18.23Q41.65-15.5 42.35-13.34 43.05-11.18 44.36-9.68 45.67-8.18 47.59-7.39 49.5-6.6 51.95-6.6L51.95-6.6Q54.37-6.6 56.27-7.39 58.17-8.18 59.48-9.68 60.8-11.18 61.5-13.34 62.2-15.5 62.2-18.23ZM107.95-18.23L107.95-18.23Q107.95-14.28 106.58-10.94 105.22-7.6 102.75-5.16 100.27-2.73 96.78-1.36 93.3 0 89.05 0L89.05 0 74.9 0 74.9-36.43 89.05-36.43Q93.3-36.43 96.78-35.05 100.27-33.68 102.75-31.25 105.22-28.83 106.58-25.49 107.95-22.15 107.95-18.23ZM99.3-18.23L99.3-18.23Q99.3-20.93 98.6-23.1 97.9-25.28 96.58-26.79 95.27-28.3 93.37-29.11 91.47-29.93 89.05-29.93L89.05-29.93 83.4-29.93 83.4-6.5 89.05-6.5Q91.47-6.5 93.37-7.31 95.27-8.13 96.58-9.64 97.9-11.15 98.6-13.33 99.3-15.5 99.3-18.23ZM136.47-9.43L136.47-9.43Q136.77-9.43 137.07-9.31 137.37-9.2 137.64-8.93L137.64-8.93 140.99-5.4Q138.79-2.53 135.48-1.06 132.17 0.4 127.64 0.4L127.64 0.4Q123.49 0.4 120.21-1.01 116.92-2.43 114.63-4.91 112.34-7.4 111.12-10.81 109.89-14.23 109.89-18.23L109.89-18.23Q109.89-22.3 111.29-25.71 112.69-29.13 115.21-31.6 117.72-34.08 121.22-35.45 124.72-36.83 128.94-36.83L128.94-36.83Q130.99-36.83 132.81-36.46 134.62-36.1 136.19-35.46 137.77-34.83 139.09-33.94 140.42-33.05 141.44-31.98L141.44-31.98 138.59-28.15Q138.32-27.8 137.94-27.51 137.57-27.23 136.89-27.23L136.89-27.23Q136.44-27.23 136.04-27.43 135.64-27.63 135.19-27.91 134.74-28.2 134.21-28.54 133.67-28.88 132.93-29.16 132.19-29.45 131.21-29.65 130.22-29.85 128.89-29.85L128.89-29.85Q126.59-29.85 124.69-29.04 122.79-28.23 121.43-26.71 120.07-25.2 119.31-23.05 118.54-20.9 118.54-18.23L118.54-18.23Q118.54-15.43 119.31-13.25 120.07-11.08 121.38-9.59 122.69-8.1 124.44-7.33 126.19-6.55 128.19-6.55L128.19-6.55Q129.34-6.55 130.29-6.66 131.24-6.78 132.06-7.05 132.87-7.33 133.61-7.76 134.34-8.2 135.09-8.85L135.09-8.85Q135.39-9.1 135.74-9.26 136.09-9.43 136.47-9.43ZM164.64-36.43L178.74 0 172.19 0Q171.09 0 170.38-0.51 169.67-1.03 169.39-1.83L169.39-1.83 167.24-8.18 153.39-8.18 151.24-1.83Q150.99-1.13 150.27-0.56 149.54 0 148.49 0L148.49 0 141.89 0 155.99-36.43 164.64-36.43ZM158.69-23.85L155.34-13.93 165.29-13.93 161.94-23.9Q161.62-24.85 161.18-26.14 160.74-27.43 160.31-28.93L160.31-28.93Q159.91-27.4 159.49-26.1 159.06-24.8 158.69-23.85L158.69-23.85ZM204.09-32.95L201.99-29.03Q201.61-28.43 201.2-28.13 200.79-27.83 200.14-27.83L200.14-27.83Q199.56-27.83 198.9-28.19 198.24-28.55 197.4-29 196.56-29.45 195.49-29.81 194.41-30.18 193.04-30.18L193.04-30.18Q190.66-30.18 189.5-29.16 188.34-28.15 188.34-26.43L188.34-26.43Q188.34-25.33 189.04-24.6 189.74-23.88 190.88-23.35 192.01-22.83 193.47-22.39 194.94-21.95 196.46-21.41 197.99-20.88 199.45-20.15 200.91-19.43 202.05-18.3 203.19-17.18 203.89-15.56 204.59-13.95 204.59-11.68L204.59-11.68Q204.59-9.15 203.71-6.95 202.84-4.75 201.18-3.11 199.51-1.48 197.07-0.54 194.64 0.4 191.54 0.4L191.54 0.4Q189.84 0.4 188.07 0.05 186.31-0.3 184.66-0.94 183.01-1.58 181.56-2.45 180.11-3.33 179.04-4.4L179.04-4.4 181.54-8.35Q181.81-8.8 182.31-9.08 182.81-9.35 183.39-9.35L183.39-9.35Q184.14-9.35 184.9-8.88 185.66-8.4 186.63-7.83 187.59-7.25 188.84-6.78 190.09-6.3 191.79-6.3L191.79-6.3Q194.09-6.3 195.36-7.31 196.64-8.33 196.64-10.53L196.64-10.53Q196.64-11.8 195.94-12.6 195.24-13.4 194.1-13.93 192.96-14.45 191.51-14.85 190.06-15.25 188.54-15.74 187.01-16.23 185.56-16.94 184.11-17.65 182.97-18.81 181.84-19.98 181.14-21.71 180.44-23.45 180.44-26L180.44-26Q180.44-28.05 181.26-30 182.09-31.95 183.69-33.48 185.29-35 187.61-35.91 189.94-36.83 192.94-36.83L192.94-36.83Q194.61-36.83 196.2-36.56 197.79-36.3 199.21-35.79 200.64-35.27 201.88-34.56 203.11-33.85 204.09-32.95L204.09-32.95ZM206.28-36.43L235.24-36.43 235.24-29.73 224.99-29.73 224.99 0 216.53 0 216.53-29.73 206.28-29.73 206.28-36.43ZM261.23-12.18L256.83-12.18 256.83 0 248.38 0 248.38-36.43 261.23-36.43Q265.08-36.43 267.84-35.51 270.61-34.6 272.39-33 274.18-31.4 275.03-29.23 275.88-27.05 275.88-24.53L275.88-24.53Q275.88-21.8 275-19.53 274.13-17.25 272.33-15.63 270.53-14 267.77-13.09 265-12.18 261.23-12.18L261.23-12.18ZM256.83-30.1L256.83-18.55 261.23-18.55Q264.53-18.55 265.98-20.13 267.43-21.7 267.43-24.53L267.43-24.53Q267.43-25.78 267.06-26.8 266.68-27.83 265.92-28.56 265.16-29.3 263.99-29.7 262.83-30.1 261.23-30.1L261.23-30.1 256.83-30.1ZM290.88-13.48L288.73-13.48 288.73 0 280.28 0 280.28-36.43 292.13-36.43Q296.08-36.43 298.87-35.61 301.65-34.8 303.42-33.35 305.18-31.9 305.98-29.93 306.78-27.95 306.78-25.63L306.78-25.63Q306.78-23.85 306.3-22.28 305.83-20.7 304.89-19.36 303.95-18.03 302.59-16.98 301.23-15.93 299.45-15.25L299.45-15.25Q300.3-14.83 301.04-14.2 301.78-13.58 302.33-12.68L302.33-12.68 310.08 0 302.43 0Q300.3 0 299.38-1.6L299.38-1.6 293.33-12.18Q292.93-12.88 292.39-13.18 291.85-13.48 290.88-13.48L290.88-13.48ZM288.73-30.1L288.73-19.3 292.13-19.3Q293.85-19.3 295.07-19.74 296.28-20.18 297.05-20.95 297.83-21.73 298.18-22.76 298.53-23.8 298.53-25L298.53-25Q298.53-27.4 296.97-28.75 295.4-30.1 292.13-30.1L292.13-30.1 288.73-30.1ZM322.78-36.43L322.78 0 314.28 0 314.28-36.43 322.78-36.43ZM365.47-18.23L365.47-18.23Q365.47-14.28 364.11-10.88 362.75-7.48 360.27-4.96 357.8-2.45 354.31-1.03 350.82 0.4 346.57 0.4L346.57 0.4Q342.32 0.4 338.82-1.03 335.32-2.45 332.84-4.96 330.35-7.48 328.99-10.88 327.62-14.28 327.62-18.23L327.62-18.23Q327.62-22.18 328.99-25.58 330.35-28.98 332.84-31.48 335.32-33.98 338.82-35.4 342.32-36.83 346.57-36.83L346.57-36.83Q350.82-36.83 354.31-35.39 357.8-33.95 360.27-31.45 362.75-28.95 364.11-25.55 365.47-22.15 365.47-18.23ZM356.82-18.23L356.82-18.23Q356.82-20.93 356.12-23.09 355.42-25.25 354.11-26.75 352.8-28.25 350.9-29.05 349-29.85 346.57-29.85L346.57-29.85Q344.12-29.85 342.21-29.05 340.3-28.25 338.99-26.75 337.67-25.25 336.97-23.09 336.27-20.93 336.27-18.23L336.27-18.23Q336.27-15.5 336.97-13.34 337.67-11.18 338.99-9.68 340.3-8.18 342.21-7.39 344.12-6.6 346.57-6.6L346.57-6.6Q349-6.6 350.9-7.39 352.8-8.18 354.11-9.68 355.42-11.18 356.12-13.34 356.82-15.5 356.82-18.23ZM380.12-13.48L377.97-13.48 377.97 0 369.52 0 369.52-36.43 381.37-36.43Q385.32-36.43 388.11-35.61 390.9-34.8 392.66-33.35 394.42-31.9 395.22-29.93 396.02-27.95 396.02-25.63L396.02-25.63Q396.02-23.85 395.55-22.28 395.07-20.7 394.13-19.36 393.2-18.03 391.83-16.98 390.47-15.93 388.7-15.25L388.7-15.25Q389.55-14.83 390.28-14.2 391.02-13.58 391.57-12.68L391.57-12.68 399.32 0 391.67 0Q389.55 0 388.62-1.6L388.62-1.6 382.57-12.18Q382.17-12.88 381.63-13.18 381.1-13.48 380.12-13.48L380.12-13.48ZM377.97-30.1L377.97-19.3 381.37-19.3Q383.1-19.3 384.31-19.74 385.52-20.18 386.3-20.95 387.07-21.73 387.42-22.76 387.77-23.8 387.77-25L387.77-25Q387.77-27.4 386.21-28.75 384.65-30.1 381.37-30.1L381.37-30.1 377.97-30.1ZM412.02-36.43L412.02 0 403.52 0 403.52-36.43 412.02-36.43ZM416.27-36.43L445.22-36.43 445.22-29.73 434.97-29.73 434.97 0 426.52 0 426.52-29.73 416.27-29.73 416.27-36.43ZM457.96-36.43L457.96 0 449.46 0 449.46-36.43 457.96-36.43ZM464.11-36.43L491.36-36.43 491.36-33.38Q491.36-32.73 491.15-32.1 490.94-31.48 490.56-30.93L490.56-30.93 473.46-6.5 490.81-6.5 490.81 0 462.71 0 462.71-3.25Q462.71-3.83 462.91-4.39 463.11-4.95 463.46-5.43L463.46-5.43 480.61-29.93 464.11-29.93 464.11-36.43ZM495.21-36.43L518.66-36.43 518.66-29.93 503.71-29.93 503.71-21.43 515.16-21.43 515.16-15.18 503.71-15.18 503.71-6.5 518.66-6.5 518.66 0 495.21 0 495.21-36.43ZM534.05-13.48L531.9-13.48 531.9 0 523.45 0 523.45-36.43 535.3-36.43Q539.25-36.43 542.04-35.61 544.83-34.8 546.59-33.35 548.35-31.9 549.15-29.93 549.95-27.95 549.95-25.63L549.95-25.63Q549.95-23.85 549.48-22.28 549-20.7 548.07-19.36 547.13-18.03 545.77-16.98 544.4-15.93 542.63-15.25L542.63-15.25Q543.48-14.83 544.22-14.2 544.95-13.58 545.5-12.68L545.5-12.68 553.25 0 545.6 0Q543.48 0 542.55-1.6L542.55-1.6 536.5-12.18Q536.1-12.88 535.57-13.18 535.03-13.48 534.05-13.48L534.05-13.48ZM531.9-30.1L531.9-19.3 535.3-19.3Q537.03-19.3 538.24-19.74 539.45-20.18 540.23-20.95 541-21.73 541.35-22.76 541.7-23.8 541.7-25L541.7-25Q541.7-27.4 540.14-28.75 538.58-30.1 535.3-30.1L535.3-30.1 531.9-30.1Z" opacity="1" transform="matrix(1,0,0,1,0,0)" fill="#001e31" class="wordmark-text-0" data-fill-palette-color="primary" id="text-0"></path></svg></g></svg></g></svg></g></svg></g><g transform="matrix(1,0,0,1,123.05570710549773,0)"><svg viewBox="0 0 70.30458578900458 70.30458578900458" height="70.30458578900458" width="70.30458578900458"><g><svg></svg></g><g id="icon-0"><svg viewBox="0 0 70.30458578900458 70.30458578900458" height="70.30458578900458" width="70.30458578900458"><g><path d="M0 35.152c0-19.414 15.738-35.152 35.152-35.152 19.414 0 35.152 15.738 35.153 35.152 0 19.414-15.738 35.152-35.153 35.153-19.414 0-35.152-15.738-35.152-35.153zM35.152 68.374c18.348 0 33.222-14.874 33.222-33.222 0-18.348-14.874-33.222-33.222-33.222-18.348 0-33.222 14.874-33.222 33.222 0 18.348 14.874 33.222 33.222 33.222z" data-fill-palette-color="accent" fill="#c2edd8" stroke="transparent"></path></g><g transform="matrix(1,0,0,1,25.31139113117888,22.03109054340441)"><svg viewBox="0 0 19.681803526646817 26.242404702195753" height="26.242404702195753" width="19.681803526646817"><g><svg version="1.1" xmlns="http://www.w3.org/2000/svg" xmlns:xlink="http://www.w3.org/1999/xlink" x="0" y="0" viewBox="0 0 75 100" enable-background="new 0 0 75 100" xml:space="preserve" height="26.242404702195753" width="19.681803526646817" class="icon-s-0" data-fill-palette-color="accent" id="s-0"><path fill="#c2edd8" d="M68.75 0H6.25C2.798 0 0 2.798 0 6.25v87.5C0 97.201 2.798 100 6.25 100h62.5c3.451 0 6.25-2.799 6.25-6.25V6.25C75 2.798 72.201 0 68.75 0zM68.75 88.542c0 3.452-1.758 5.208-5.208 5.208H11.458c-3.452 0-5.208-1.756-5.208-5.208V11.458c0-3.452 1.756-5.208 5.208-5.208h52.084c3.45 0 5.208 1.756 5.208 5.208V88.542z" data-fill-palette-color="accent"></path><path fill="#c2edd8" d="M37.5 43.75c-12.081 0-21.876 9.793-21.876 21.875S25.419 87.5 37.5 87.5s21.875-9.794 21.875-21.875S49.581 43.75 37.5 43.75zM37.5 85.416c-10.931 0-19.792-8.86-19.792-19.791 0-10.932 8.861-19.792 19.792-19.792 10.93 0 19.792 8.86 19.792 19.792C57.292 76.556 48.43 85.416 37.5 85.416z" data-fill-palette-color="accent"></path><path fill="#c2edd8" d="M37.5 59.274c3.508 0 6.351 2.843 6.351 6.351s-2.843 6.351-6.351 6.351c-3.507 0-6.352-2.843-6.352-6.351S33.993 59.274 37.5 59.274z" data-fill-palette-color="accent"></path><path fill="#c2edd8" d="M37.5 14.578c-5.756 0-10.422 4.666-10.422 10.422S31.744 35.421 37.5 35.421c5.755 0 10.422-4.666 10.422-10.422S43.255 14.578 37.5 14.578zM37.5 33.337c-4.604 0-8.338-3.733-8.338-8.338 0-4.604 3.733-8.338 8.338-8.338s8.337 3.733 8.337 8.338C45.837 29.604 42.104 33.337 37.5 33.337z" data-fill-palette-color="accent"></path></svg></g></svg></g></svg></g></svg></g><g></g></svg></g></svg></g></svg></g><defs></defs></svg><rect width="375.07952880859375" height="243.84971618652344" fill="none" stroke="none" visibility="hidden"></rect></g></svg></g></svg>